# xmcd CD database file
# Copyright (C) 1997 Ti Kan
#
# Track frame offsets:
#  150
#  11662
#  23357
#  37645
#  49375
#  60162
#  71767
#  85685
#  98382
#  114122
#  129937
#  144082
#  154172
#  167445
#
# Disc length: 2417 seconds
#
# Revision: 1
# Processed by: cddbd v1.4b41PL1 Copyright (c) Steve Scherf et al.
# Submitted via: CDWizzard Release:4.31
#
DISCID=8f096f0e
DTITLE=Muddy Waters - Rare And Unissued
DYEAR=1900
DGENRE=
TTITLE0=Little Anna Mae
TTITLE1=Mean Disposition
TTITLE2=Feel Like Going Home
TTITLE3=You're Gonna Miss Me
TTITLE4=Standing There Trembling
TTITLE5=Last Time I Fool Around With You
TTITLE6=Where's My Woman Been
TTITLE7=Stuff You Gotta Watch
TTITLE8=Lonesome Day
TTITLE9=Iodine In My Coffee
TTITLE10=Smokestack Lightnin'
TTITLE11=Let Me Hang Around
TTITLE12=Born Lover
TTITLE13=Deep Down In My Heart
EXTD=CHD 9180\n\nSubmitted 7/16/97\n[Jmccoy@efn.org]
EXTT0=
EXTT1=
EXTT2=
EXTT3=
EXTT4=
EXTT5=
EXTT6=
EXTT7=
EXTT8=
EXTT9=
EXTT10=
EXTT11=
EXTT12=
EXTT13=
PLAYORDER=
